<svg xmlns="http://www.w3.org/2000/svg" xmlns:xlink="http://www.w3.org/1999/xlink" width="500" zoomAndPan="magnify" viewBox="0 0 375 187.499995" height="250" preserveAspectRatio="xMidYMid meet" version="1.0"><defs><clipPath id="id1"><path d="M 0.5 0 L 374.5 0 L 374.5 187 L 0.5 187 Z M 0.5 0 " clip-rule="nonzero"/></clipPath><clipPath id="id2"><path d="M 33.027344 34.023438 L 109 34.023438 L 109 136.242188 L 33.027344 136.242188 Z M 33.027344 34.023438 " clip-rule="nonzero"/></clipPath><clipPath id="id3"><path d="M 63.074219 76.371094 L 146.511719 76.371094 L 146.511719 133 L 63.074219 133 Z M 63.074219 76.371094 " clip-rule="nonzero"/></clipPath><clipPath id="id4"><path d="M 12.101562 34.023438 L 75.953125 34.023438 L 75.953125 133.25 L 12.101562 133.25 Z M 12.101562 34.023438 " clip-rule="nonzero"/></clipPath></defs><g clip-path="url(#id1)"><path fill="rgb(100%, 100%, 100%)" d="M 0.5 0 L 374.5 0 L 374.5 194.480469 L 0.5 194.480469 Z M 0.5 0 " fill-opacity="1" fill-rule="nonzero"/><path fill="rgb(100%, 100%, 100%)" d="M 0.5 0 L 374.5 0 L 374.5 187 L 0.5 187 Z M 0.5 0 " fill-opacity="1" fill-rule="nonzero"/><path fill="rgb(100%, 100%, 100%)" d="M 0.5 0 L 374.5 0 L 374.5 187 L 0.5 187 Z M 0.5 0 " fill-opacity="1" fill-rule="nonzero"/><path fill="rgb(100%, 100%, 100%)" d="M 0.5 0 L 374.5 0 L 374.5 187 L 0.5 187 Z M 0.5 0 " fill-opacity="1" fill-rule="nonzero"/></g><g clip-path="url(#id2)"><path fill="rgb(98.81897%, 72.938538%, 1.179504%)" d="M 90.859375 132.140625 C 89.476562 132.140625 88.347656 131.019531 88.347656 129.636719 C 88.347656 128.246094 89.476562 127.125 90.859375 127.125 C 92.246094 127.125 93.371094 128.246094 93.371094 129.636719 C 93.371094 131.019531 92.246094 132.140625 90.859375 132.140625 Z M 102.285156 61.632812 C 100.898438 61.632812 99.777344 60.511719 99.777344 59.121094 C 99.777344 57.738281 100.898438 56.617188 102.285156 56.617188 C 103.671875 56.617188 104.796875 57.738281 104.796875 59.121094 C 104.796875 60.511719 103.671875 61.632812 102.285156 61.632812 Z M 90.859375 123.042969 C 88.617188 123.042969 86.632812 124.160156 85.441406 125.875 L 43.804688 125.824219 L 89.988281 45.070312 L 96.421875 56.113281 C 95.957031 57.015625 95.691406 58.039062 95.691406 59.121094 C 95.691406 62.765625 98.648438 65.714844 102.285156 65.714844 C 105.929688 65.714844 108.878906 62.765625 108.878906 59.121094 C 108.878906 55.660156 106.210938 52.824219 102.816406 52.554688 L 92.347656 35.195312 C 92.347656 35.195312 89.25 32.140625 85.738281 38.230469 L 35.039062 126.21875 C 35.039062 126.21875 30.65625 132.625 37.738281 132.960938 L 85.164062 132.960938 C 86.308594 134.914062 88.429688 136.230469 90.859375 136.230469 C 94.5 136.230469 97.453125 133.273438 97.453125 129.636719 C 97.453125 125.992188 94.5 123.042969 90.859375 123.042969 Z M 90.859375 123.042969 " fill-opacity="1" fill-rule="nonzero"/></g><g clip-path="url(#id3)"><path fill="rgb(85.099792%, 85.099792%, 85.099792%)" d="M 87.171875 77.019531 C 92.945312 76.875 112.171875 76.261719 115.308594 77.84375 C 117.078125 78.730469 119.234375 83.308594 120.324219 84.964844 C 127.148438 95.316406 145.269531 126.554688 145.269531 126.554688 C 145.269531 126.554688 148.976562 131.609375 143.582031 132.960938 L 114.59375 132.960938 C 114.59375 132.960938 112.90625 133.386719 110.882812 129.636719 L 99.085938 109.023438 L 71.304688 109.023438 L 71.292969 109.035156 L 63.265625 109.035156 C 67.59375 101.625 76.382812 86.65625 82.355469 77.019531 Z M 87.171875 77.019531 " fill-opacity="1" fill-rule="nonzero"/></g><g clip-path="url(#id4)"><path fill="rgb(98.81897%, 72.938538%, 1.179504%)" d="M 18.746094 129.007812 C 20.128906 129.007812 21.253906 127.882812 21.253906 126.496094 C 21.253906 125.109375 20.128906 123.984375 18.746094 123.984375 C 17.355469 123.984375 16.234375 125.109375 16.234375 126.496094 C 16.234375 127.882812 17.355469 129.007812 18.746094 129.007812 Z M 65.496094 46.117188 C 65.519531 46.132812 65.539062 46.148438 65.558594 46.160156 Z M 67.359375 46.957031 C 67.386719 46.964844 67.417969 46.96875 67.445312 46.976562 Z M 67.617188 47.015625 C 67.640625 47.019531 67.65625 47.023438 67.675781 47.027344 C 67.65625 47.023438 67.640625 47.019531 67.617188 47.015625 Z M 69.003906 47.164062 L 58.269531 65.933594 L 24.734375 124.027344 L 24.730469 124.019531 C 25.023438 124.769531 25.1875 125.582031 25.1875 126.433594 C 25.1875 130.070312 22.230469 133.027344 18.59375 133.027344 C 16.164062 133.027344 14.046875 131.710938 12.902344 129.757812 L 12.839844 129.757812 C 12.273438 128.78125 11.949219 127.644531 11.949219 126.433594 C 11.949219 125.035156 12.382812 123.742188 13.113281 122.671875 L 13.171875 122.671875 C 14.367188 120.957031 16.347656 119.839844 18.59375 119.839844 C 18.707031 119.839844 18.820312 119.839844 18.929688 119.847656 L 18.929688 119.84375 L 62.984375 43.382812 L 63.007812 43.421875 C 62.59375 42.558594 62.363281 41.589844 62.363281 40.570312 C 62.363281 39.171875 62.792969 37.882812 63.527344 36.8125 L 63.589844 36.8125 C 64.78125 35.097656 66.761719 33.976562 69.003906 33.976562 C 72.648438 33.976562 75.601562 36.925781 75.601562 40.570312 C 75.601562 44.210938 72.648438 47.164062 69.003906 47.164062 Z M 24.71875 123.992188 C 24.707031 123.953125 24.6875 123.917969 24.675781 123.882812 C 24.6875 123.917969 24.707031 123.953125 24.71875 123.992188 Z M 24.660156 123.847656 C 24.640625 123.808594 24.625 123.773438 24.613281 123.738281 C 24.625 123.773438 24.640625 123.808594 24.660156 123.847656 Z M 24.601562 123.710938 C 24.578125 123.664062 24.558594 123.625 24.539062 123.582031 C 24.558594 123.625 24.578125 123.664062 24.601562 123.710938 Z M 24.523438 123.546875 C 24.507812 123.515625 24.492188 123.480469 24.476562 123.449219 C 24.492188 123.480469 24.507812 123.515625 24.523438 123.546875 Z M 24.453125 123.410156 C 24.4375 123.371094 24.417969 123.339844 24.394531 123.300781 C 24.417969 123.339844 24.4375 123.371094 24.453125 123.410156 Z M 24.386719 123.285156 C 24.367188 123.242188 24.339844 123.199219 24.320312 123.160156 C 24.339844 123.199219 24.367188 123.242188 24.386719 123.285156 Z M 24.296875 123.125 C 24.28125 123.09375 24.261719 123.0625 24.246094 123.03125 C 24.261719 123.0625 24.28125 123.09375 24.296875 123.125 Z M 24.222656 123 C 24.199219 122.957031 24.171875 122.917969 24.148438 122.882812 C 24.171875 122.917969 24.199219 122.957031 24.222656 123 Z M 24.148438 122.878906 C 24.121094 122.835938 24.09375 122.796875 24.066406 122.761719 C 24.09375 122.796875 24.117188 122.835938 24.148438 122.878906 Z M 24.042969 122.722656 C 24.027344 122.691406 24.003906 122.664062 23.984375 122.632812 C 24.003906 122.664062 24.027344 122.691406 24.042969 122.722656 Z M 23.960938 122.601562 C 23.933594 122.5625 23.90625 122.527344 23.878906 122.488281 C 23.90625 122.527344 23.933594 122.5625 23.960938 122.601562 Z M 23.867188 122.476562 C 23.839844 122.441406 23.816406 122.410156 23.792969 122.375 C 23.816406 122.410156 23.839844 122.441406 23.867188 122.476562 Z M 23.765625 122.339844 C 23.742188 122.3125 23.71875 122.28125 23.695312 122.257812 C 23.71875 122.28125 23.742188 122.3125 23.765625 122.339844 Z M 23.675781 122.226562 C 23.644531 122.195312 23.609375 122.15625 23.582031 122.117188 C 23.609375 122.15625 23.644531 122.195312 23.675781 122.226562 Z M 23.566406 122.101562 C 23.539062 122.074219 23.515625 122.042969 23.484375 122.015625 C 23.515625 122.042969 23.539062 122.074219 23.566406 122.101562 Z M 23.457031 121.980469 C 23.429688 121.953125 23.40625 121.925781 23.378906 121.898438 C 23.40625 121.925781 23.429688 121.953125 23.457031 121.980469 Z M 23.359375 121.875 C 23.328125 121.84375 23.292969 121.808594 23.261719 121.773438 C 23.296875 121.808594 23.328125 121.84375 23.359375 121.875 Z M 23.234375 121.75 C 23.207031 121.726562 23.183594 121.699219 23.160156 121.675781 C 23.183594 121.699219 23.207031 121.726562 23.234375 121.75 Z M 23.125 121.644531 C 23.09375 121.617188 23.066406 121.585938 23.03125 121.558594 C 23.066406 121.585938 23.09375 121.617188 23.125 121.644531 Z M 23.023438 121.550781 C 22.988281 121.515625 22.953125 121.484375 22.914062 121.453125 C 22.953125 121.484375 22.988281 121.515625 23.023438 121.550781 Z M 22.886719 121.425781 C 22.859375 121.40625 22.832031 121.382812 22.804688 121.359375 C 22.832031 121.382812 22.859375 121.40625 22.886719 121.425781 Z M 22.660156 121.242188 C 22.625 121.214844 22.589844 121.183594 22.550781 121.160156 C 22.589844 121.183594 22.625 121.214844 22.660156 121.242188 Z M 22.515625 121.132812 C 22.488281 121.109375 22.457031 121.085938 22.429688 121.066406 C 22.457031 121.085938 22.488281 121.109375 22.515625 121.132812 Z M 22.398438 121.046875 C 22.359375 121.019531 22.320312 120.992188 22.28125 120.964844 C 22.320312 120.992188 22.359375 121.019531 22.398438 121.046875 Z M 22.261719 120.953125 C 22.226562 120.933594 22.195312 120.90625 22.160156 120.886719 C 22.195312 120.90625 22.226562 120.933594 22.261719 120.953125 Z M 22.125 120.863281 C 22.09375 120.84375 22.058594 120.824219 22.03125 120.800781 C 22.058594 120.824219 22.09375 120.84375 22.125 120.863281 Z M 22 120.785156 C 21.964844 120.765625 21.921875 120.738281 21.878906 120.714844 C 21.921875 120.738281 21.964844 120.765625 22 120.785156 Z M 21.851562 120.699219 C 21.816406 120.679688 21.789062 120.660156 21.753906 120.644531 C 21.789062 120.660156 21.816406 120.679688 21.851562 120.699219 Z M 21.714844 120.621094 C 21.683594 120.605469 21.644531 120.585938 21.613281 120.566406 C 21.644531 120.585938 21.683594 120.605469 21.714844 120.621094 Z M 21.585938 120.554688 C 21.542969 120.535156 21.503906 120.511719 21.460938 120.492188 C 21.503906 120.511719 21.542969 120.535156 21.585938 120.554688 Z M 21.425781 120.476562 C 21.394531 120.457031 21.359375 120.445312 21.328125 120.429688 C 21.359375 120.445312 21.394531 120.457031 21.425781 120.476562 Z M 21.289062 120.414062 C 21.246094 120.394531 21.210938 120.378906 21.171875 120.363281 C 21.210938 120.378906 21.25 120.394531 21.289062 120.414062 Z M 21.15625 120.355469 C 21.113281 120.335938 21.066406 120.316406 21.019531 120.300781 C 21.066406 120.316406 21.113281 120.335938 21.15625 120.355469 Z M 20.988281 120.285156 C 20.949219 120.269531 20.914062 120.257812 20.882812 120.246094 C 20.914062 120.257812 20.949219 120.269531 20.988281 120.285156 Z M 20.84375 120.234375 C 20.796875 120.214844 20.753906 120.199219 20.707031 120.183594 C 20.753906 120.199219 20.796875 120.214844 20.84375 120.234375 Z M 20.699219 120.183594 C 20.65625 120.164062 20.613281 120.152344 20.570312 120.140625 C 20.613281 120.152344 20.65625 120.164062 20.699219 120.183594 Z M 20.527344 120.128906 C 20.492188 120.113281 20.457031 120.105469 20.421875 120.09375 C 20.457031 120.105469 20.492188 120.113281 20.527344 120.128906 Z M 20.382812 120.082031 C 20.335938 120.070312 20.292969 120.054688 20.246094 120.042969 C 20.292969 120.054688 20.335938 120.070312 20.382812 120.082031 Z M 20.21875 120.039062 C 20.183594 120.03125 20.140625 120.019531 20.097656 120.011719 C 20.140625 120.019531 20.183594 120.03125 20.21875 120.039062 Z M 20.0625 120.003906 C 20.019531 119.992188 19.980469 119.984375 19.941406 119.976562 C 19.980469 119.984375 20.019531 119.992188 20.0625 120.003906 Z M 19.914062 119.96875 C 19.863281 119.960938 19.8125 119.953125 19.765625 119.941406 C 19.8125 119.953125 19.863281 119.960938 19.914062 119.96875 Z M 19.738281 119.933594 C 19.695312 119.929688 19.660156 119.921875 19.621094 119.917969 C 19.660156 119.921875 19.695312 119.929688 19.738281 119.933594 Z M 19.574219 119.910156 C 19.53125 119.90625 19.492188 119.898438 19.449219 119.894531 C 19.492188 119.898438 19.53125 119.90625 19.574219 119.910156 Z M 19.425781 119.890625 C 19.378906 119.882812 19.328125 119.875 19.277344 119.871094 C 19.328125 119.875 19.378906 119.882812 19.425781 119.890625 Z M 19.238281 119.867188 C 19.203125 119.863281 19.164062 119.859375 19.125 119.859375 C 19.164062 119.863281 19.203125 119.863281 19.238281 119.867188 Z M 19.078125 119.855469 C 19.035156 119.851562 18.984375 119.847656 18.933594 119.847656 C 18.984375 119.847656 19.035156 119.851562 19.078125 119.855469 Z M 63.058594 43.527344 C 63.070312 43.558594 63.082031 43.582031 63.097656 43.613281 C 63.082031 43.582031 63.070312 43.558594 63.058594 43.527344 Z M 63.230469 43.855469 C 63.238281 43.867188 63.246094 43.878906 63.253906 43.894531 Z M 69.003906 43.078125 C 70.394531 43.078125 71.515625 41.957031 71.515625 40.570312 C 71.515625 39.183594 70.394531 38.0625 69.003906 38.0625 C 67.621094 38.0625 66.496094 39.183594 66.496094 40.570312 C 66.496094 41.957031 67.621094 43.078125 69.003906 43.078125 Z M 69.003906 47.164062 C 68.96875 47.164062 68.929688 47.164062 68.894531 47.164062 L 68.886719 47.164062 C 68.855469 47.164062 68.816406 47.164062 68.78125 47.160156 L 68.773438 47.160156 C 68.742188 47.160156 68.703125 47.160156 68.667969 47.15625 C 68.628906 47.15625 68.589844 47.148438 68.554688 47.148438 C 68.515625 47.144531 68.476562 47.140625 68.445312 47.140625 L 68.441406 47.140625 C 68.40625 47.136719 68.367188 47.132812 68.332031 47.128906 C 68.292969 47.125 68.253906 47.121094 68.222656 47.117188 L 68.21875 47.117188 C 68.183594 47.113281 68.144531 47.109375 68.113281 47.105469 L 68.109375 47.105469 C 68.074219 47.101562 68.039062 47.097656 68 47.085938 C 67.960938 47.082031 67.929688 47.074219 67.890625 47.070312 C 67.855469 47.066406 67.820312 47.058594 67.785156 47.050781 L 67.78125 47.050781 C 67.75 47.046875 67.710938 47.035156 67.675781 47.027344 Z M 23.988281 121.378906 C 24.027344 121.40625 24.0625 121.4375 24.101562 121.46875 L 24.132812 121.496094 Z M 23.988281 121.378906 " fill-opacity="1" fill-rule="nonzero"/></g><path fill="rgb(98.81897%, 72.938538%, 1.179504%)" d="M 156.667969 77.214844 L 156.667969 71.933594 L 172.246094 71.933594 L 172.246094 77.214844 L 167.566406 77.214844 L 167.566406 100.707031 L 161.347656 100.707031 L 161.347656 77.214844 Z M 156.667969 77.214844 " fill-opacity="1" fill-rule="nonzero"/><path fill="rgb(98.81897%, 72.938538%, 1.179504%)" d="M 180.652344 95.542969 L 187.542969 95.542969 L 187.542969 100.707031 L 174.429688 100.707031 L 174.429688 71.933594 L 187.542969 71.933594 L 187.542969 76.996094 L 180.652344 76.996094 L 180.652344 83.753906 L 187.105469 83.753906 L 187.105469 88.652344 L 180.652344 88.652344 Z M 180.652344 95.542969 " fill-opacity="1" fill-rule="nonzero"/><path fill="rgb(98.81897%, 72.938538%, 1.179504%)" d="M 201.203125 95.996094 L 201.203125 91.535156 L 207.121094 91.535156 L 207.121094 95.273438 C 207.121094 99.199219 205.28125 101.160156 201.605469 101.160156 L 196.003906 101.160156 C 192.324219 101.160156 190.488281 99.199219 190.488281 95.273438 L 190.488281 77.347656 C 190.488281 73.4375 192.324219 71.480469 196.003906 71.480469 L 201.605469 71.480469 C 205.28125 71.480469 207.121094 73.4375 207.121094 77.347656 L 207.121094 80.066406 L 201.203125 80.066406 L 201.203125 76.59375 C 201.203125 76.359375 201.117188 76.15625 200.949219 75.972656 C 200.789062 75.796875 200.597656 75.707031 200.363281 75.707031 L 197.546875 75.707031 C 197.3125 75.707031 197.109375 75.796875 196.941406 75.972656 C 196.785156 76.15625 196.707031 76.359375 196.707031 76.59375 L 196.707031 95.996094 C 196.707031 96.230469 196.785156 96.4375 196.941406 96.617188 C 197.109375 96.796875 197.3125 96.882812 197.546875 96.882812 L 200.363281 96.882812 C 200.597656 96.882812 200.789062 96.796875 200.949219 96.617188 C 201.117188 96.4375 201.203125 96.230469 201.203125 95.996094 Z M 201.203125 95.996094 " fill-opacity="1" fill-rule="nonzero"/><path fill="rgb(98.81897%, 72.938538%, 1.179504%)" d="M 216.414062 89.40625 L 216.414062 100.707031 L 210.191406 100.707031 L 210.191406 71.933594 L 216.414062 71.933594 L 216.414062 83.972656 L 221.359375 83.972656 L 221.359375 71.933594 L 227.582031 71.933594 L 227.582031 100.707031 L 221.359375 100.707031 L 221.359375 89.40625 Z M 216.414062 89.40625 " fill-opacity="1" fill-rule="nonzero"/><path fill="rgb(98.81897%, 72.938538%, 1.179504%)" d="M 250.3125 71.933594 L 255.832031 71.933594 L 259.167969 93.597656 L 261.648438 71.933594 L 267.703125 71.933594 L 263.023438 100.707031 L 255.964844 100.707031 L 253.0625 83.050781 L 250.179688 100.707031 L 243.101562 100.707031 L 238.425781 71.933594 L 244.476562 71.933594 L 246.976562 93.597656 Z M 250.3125 71.933594 " fill-opacity="1" fill-rule="nonzero"/><path fill="rgb(98.81897%, 72.938538%, 1.179504%)" d="M 287.398438 77.347656 L 287.398438 95.273438 C 287.398438 99.199219 285.558594 101.160156 281.882812 101.160156 L 275.980469 101.160156 C 272.300781 101.160156 270.464844 99.199219 270.464844 95.273438 L 270.464844 77.347656 C 270.464844 73.4375 272.300781 71.480469 275.980469 71.480469 L 281.882812 71.480469 C 285.558594 71.480469 287.398438 73.4375 287.398438 77.347656 Z M 281.179688 95.996094 L 281.179688 76.59375 C 281.179688 76.359375 281.09375 76.15625 280.925781 75.972656 C 280.765625 75.796875 280.574219 75.707031 280.339844 75.707031 L 277.523438 75.707031 C 277.289062 75.707031 277.085938 75.796875 276.917969 75.972656 C 276.761719 76.15625 276.683594 76.359375 276.683594 76.59375 L 276.683594 95.996094 C 276.683594 96.230469 276.761719 96.4375 276.917969 96.617188 C 277.085938 96.796875 277.289062 96.882812 277.523438 96.882812 L 280.339844 96.882812 C 280.574219 96.882812 280.765625 96.796875 280.925781 96.617188 C 281.09375 96.4375 281.179688 96.230469 281.179688 95.996094 Z M 281.179688 95.996094 " fill-opacity="1" fill-rule="nonzero"/><path fill="rgb(98.81897%, 72.938538%, 1.179504%)" d="M 297.546875 88.917969 L 297.546875 100.707031 L 291.324219 100.707031 L 291.324219 71.933594 L 302.390625 71.933594 C 306.066406 71.933594 307.90625 73.890625 307.90625 77.800781 L 307.90625 81.140625 C 307.90625 83.511719 307.0625 85.019531 305.375 85.667969 C 306.859375 86.203125 307.605469 87.421875 307.605469 89.320312 L 307.605469 100.707031 L 301.367188 100.707031 L 301.367188 89.808594 C 301.367188 89.214844 301.085938 88.917969 300.53125 88.917969 Z M 297.546875 76.160156 L 297.546875 84.558594 L 300.832031 84.558594 C 301.074219 84.558594 301.277344 84.472656 301.433594 84.292969 C 301.601562 84.113281 301.6875 83.90625 301.6875 83.671875 L 301.6875 77.046875 C 301.6875 76.804688 301.601562 76.59375 301.433594 76.425781 C 301.277344 76.25 301.074219 76.160156 300.832031 76.160156 Z M 297.546875 76.160156 " fill-opacity="1" fill-rule="nonzero"/><path fill="rgb(98.81897%, 72.938538%, 1.179504%)" d="M 317.472656 95.457031 L 324.28125 95.457031 L 324.28125 100.707031 L 311.25 100.707031 L 311.25 71.933594 L 317.472656 71.933594 Z M 317.472656 95.457031 " fill-opacity="1" fill-rule="nonzero"/><path fill="rgb(98.81897%, 72.938538%, 1.179504%)" d="M 337.972656 71.933594 C 341.648438 71.933594 343.488281 73.890625 343.488281 77.800781 L 343.488281 94.839844 C 343.488281 98.753906 341.648438 100.707031 337.972656 100.707031 L 326.550781 100.707031 L 326.550781 71.933594 Z M 337.265625 95.542969 L 337.265625 77.046875 C 337.265625 76.804688 337.183594 76.59375 337.015625 76.425781 C 336.855469 76.25 336.664062 76.160156 336.429688 76.160156 L 332.773438 76.160156 L 332.773438 96.429688 L 336.429688 96.429688 C 336.664062 96.429688 336.855469 96.34375 337.015625 96.164062 C 337.183594 95.988281 337.265625 95.777344 337.265625 95.542969 Z M 337.265625 95.542969 " fill-opacity="1" fill-rule="nonzero"/><path fill="rgb(85.099792%, 85.099792%, 85.099792%)" d="M 210.4375 125.550781 C 209.164062 125.550781 208.210938 125.191406 207.585938 124.460938 C 206.96875 123.734375 206.664062 122.664062 206.664062 121.242188 L 206.664062 109.890625 L 209.683594 109.890625 L 209.683594 121.125 C 209.683594 121.617188 209.722656 122.003906 209.816406 122.28125 C 209.917969 122.550781 210.121094 122.683594 210.4375 122.683594 C 210.746094 122.683594 210.949219 122.550781 211.039062 122.28125 C 211.140625 122.011719 211.191406 121.625 211.191406 121.125 L 211.191406 109.890625 L 214.210938 109.890625 L 214.210938 121.242188 C 214.210938 122.664062 213.894531 123.734375 213.269531 124.460938 C 212.65625 125.191406 211.710938 125.550781 210.4375 125.550781 Z M 210.4375 125.550781 " fill-opacity="1" fill-rule="nonzero"/><path fill="rgb(85.099792%, 85.099792%, 85.099792%)" d="M 220.746094 109.890625 L 224.839844 109.890625 C 226.078125 109.890625 226.960938 110.292969 227.488281 111.097656 C 228.023438 111.894531 228.292969 113.058594 228.292969 114.601562 C 228.292969 116.144531 228.058594 117.308594 227.589844 118.089844 C 227.121094 118.871094 226.273438 119.261719 225.058594 119.261719 L 223.800781 119.261719 L 223.800781 125.398438 L 220.746094 125.398438 Z M 223.984375 116.460938 C 224.351562 116.460938 224.621094 116.394531 224.789062 116.261719 C 224.964844 116.117188 225.082031 115.917969 225.140625 115.65625 C 225.195312 115.402344 225.226562 115.03125 225.226562 114.550781 C 225.226562 113.90625 225.148438 113.4375 225.007812 113.140625 C 224.859375 112.851562 224.570312 112.707031 224.136719 112.707031 L 223.800781 112.707031 L 223.800781 116.460938 Z M 223.984375 116.460938 " fill-opacity="1" fill-rule="nonzero"/><path fill="rgb(85.099792%, 85.099792%, 85.099792%)" d="M 234.609375 109.890625 L 238.886719 109.890625 C 239.992188 109.890625 240.820312 110.199219 241.367188 110.8125 C 241.925781 111.429688 242.210938 112.332031 242.222656 113.527344 L 242.273438 120.789062 C 242.28125 122.324219 242.011719 123.472656 241.46875 124.242188 C 240.933594 125.015625 240.035156 125.398438 238.785156 125.398438 L 234.609375 125.398438 Z M 238.28125 122.648438 C 238.839844 122.648438 239.121094 122.378906 239.121094 121.828125 L 239.121094 113.828125 C 239.121094 113.472656 239.09375 113.210938 239.039062 113.042969 C 238.980469 112.867188 238.878906 112.75 238.734375 112.691406 C 238.601562 112.621094 238.382812 112.589844 238.082031 112.589844 L 237.730469 112.589844 L 237.730469 122.648438 Z M 238.28125 122.648438 " fill-opacity="1" fill-rule="nonzero"/><path fill="rgb(85.099792%, 85.099792%, 85.099792%)" d="M 248.433594 125.398438 L 249.941406 109.890625 L 255.191406 109.890625 L 256.667969 125.398438 L 253.730469 125.398438 L 253.515625 122.882812 L 251.636719 122.882812 L 251.453125 125.398438 Z M 251.871094 120.417969 L 253.277344 120.417969 L 252.589844 112.523438 L 252.441406 112.523438 Z M 251.871094 120.417969 " fill-opacity="1" fill-rule="nonzero"/><path fill="rgb(85.099792%, 85.099792%, 85.099792%)" d="M 264.289062 125.398438 L 264.289062 112.875 L 262.445312 112.875 L 262.445312 109.890625 L 269.238281 109.890625 L 269.238281 112.875 L 267.390625 112.875 L 267.390625 125.398438 Z M 264.289062 125.398438 " fill-opacity="1" fill-rule="nonzero"/><path fill="rgb(85.099792%, 85.099792%, 85.099792%)" d="M 275.441406 125.398438 L 275.441406 109.890625 L 281.644531 109.890625 L 281.644531 112.890625 L 278.59375 112.890625 L 278.59375 115.910156 L 281.527344 115.910156 L 281.527344 118.828125 L 278.59375 118.828125 L 278.59375 122.382812 L 281.84375 122.382812 L 281.84375 125.398438 Z M 275.441406 125.398438 " fill-opacity="1" fill-rule="nonzero"/><path fill="rgb(85.099792%, 85.099792%, 85.099792%)" d="M 291.910156 125.550781 C 290.5 125.550781 289.480469 125.207031 288.855469 124.511719 C 288.226562 123.808594 287.917969 122.679688 287.917969 121.125 L 287.917969 119.597656 L 290.96875 119.597656 L 290.96875 121.542969 C 290.96875 122.304688 291.210938 122.683594 291.707031 122.683594 C 291.984375 122.683594 292.175781 122.609375 292.277344 122.449219 C 292.386719 122.28125 292.445312 122.007812 292.445312 121.625 C 292.445312 121.125 292.382812 120.703125 292.261719 120.371094 C 292.132812 120.035156 291.980469 119.761719 291.789062 119.546875 C 291.609375 119.324219 291.28125 118.976562 290.800781 118.507812 L 289.460938 117.167969 C 288.429688 116.152344 287.917969 115.03125 287.917969 113.8125 C 287.917969 112.484375 288.21875 111.472656 288.824219 110.777344 C 289.425781 110.085938 290.316406 109.738281 291.488281 109.738281 C 292.886719 109.738281 293.890625 110.117188 294.507812 110.863281 C 295.121094 111.601562 295.429688 112.757812 295.429688 114.332031 L 292.261719 114.332031 L 292.242188 113.261719 C 292.242188 113.058594 292.183594 112.898438 292.074219 112.773438 C 291.960938 112.652344 291.800781 112.589844 291.589844 112.589844 C 291.355469 112.589844 291.175781 112.65625 291.054688 112.789062 C 290.925781 112.925781 290.867188 113.109375 290.867188 113.34375 C 290.867188 113.847656 291.15625 114.367188 291.742188 114.902344 L 293.550781 116.648438 C 293.960938 117.050781 294.308594 117.433594 294.589844 117.804688 C 294.867188 118.171875 295.09375 118.609375 295.261719 119.113281 C 295.429688 119.605469 295.511719 120.199219 295.511719 120.890625 C 295.511719 122.421875 295.234375 123.585938 294.675781 124.375 C 294.113281 125.160156 293.191406 125.550781 291.910156 125.550781 Z M 291.910156 125.550781 " fill-opacity="1" fill-rule="nonzero"/></svg>