<svg xmlns="http://www.w3.org/2000/svg" width="375" viewBox="0 0 375 375" height="375" version="1.0"><defs><clipPath id="a"><path d="M 57 113.539062 L 128 113.539062 L 128 208.789062 L 57 208.789062 Z M 57 113.539062"/></clipPath><clipPath id="b"><path d="M 85 153 L 162.75 153 L 162.75 206 L 85 206 Z M 85 153"/></clipPath><clipPath id="c"><path d="M 37.5 113.539062 L 97 113.539062 L 97 206 L 37.5 206 Z M 37.5 113.539062"/></clipPath></defs><g clip-path="url(#a)"><path fill="#FCBA03" d="M 110.890625 204.96875 C 109.601562 204.96875 108.550781 203.921875 108.550781 202.632812 C 108.550781 201.339844 109.601562 200.292969 110.890625 200.292969 C 112.183594 200.292969 113.230469 201.339844 113.230469 202.632812 C 113.230469 203.921875 112.183594 204.96875 110.890625 204.96875 Z M 121.539062 139.265625 C 120.246094 139.265625 119.203125 138.21875 119.203125 136.925781 C 119.203125 135.636719 120.246094 134.589844 121.539062 134.589844 C 122.832031 134.589844 123.878906 135.636719 123.878906 136.925781 C 123.878906 138.21875 122.832031 139.265625 121.539062 139.265625 Z M 110.890625 196.488281 C 108.800781 196.488281 106.953125 197.53125 105.84375 199.128906 L 67.042969 199.082031 L 110.078125 123.832031 L 116.074219 134.121094 C 115.640625 134.960938 115.394531 135.917969 115.394531 136.925781 C 115.394531 140.320312 118.148438 143.070312 121.539062 143.070312 C 124.933594 143.070312 127.683594 140.320312 127.683594 136.925781 C 127.683594 133.699219 125.195312 131.058594 122.035156 130.804688 L 112.277344 114.628906 C 112.277344 114.628906 109.390625 111.78125 106.121094 117.457031 L 58.875 199.449219 C 58.875 199.449219 54.792969 205.417969 61.390625 205.730469 L 105.585938 205.730469 C 106.652344 207.550781 108.628906 208.777344 110.890625 208.777344 C 114.285156 208.777344 117.035156 206.023438 117.035156 202.632812 C 117.035156 199.238281 114.285156 196.488281 110.890625 196.488281 Z M 110.890625 196.488281"/></g><g clip-path="url(#b)"><path fill="#D9D9D9" d="M 107.457031 153.601562 C 112.835938 153.46875 130.75 152.898438 133.675781 154.371094 C 135.324219 155.199219 137.332031 159.464844 138.347656 161.007812 C 144.707031 170.652344 161.59375 199.761719 161.59375 199.761719 C 161.59375 199.761719 165.046875 204.472656 160.019531 205.730469 L 133.007812 205.730469 C 133.007812 205.730469 131.4375 206.128906 129.550781 202.632812 L 118.558594 183.425781 L 92.667969 183.425781 L 92.660156 183.4375 L 85.179688 183.4375 C 89.210938 176.53125 97.402344 162.582031 102.96875 153.601562 Z M 107.457031 153.601562"/></g><g clip-path="url(#c)"><path fill="#FCBA03" d="M 43.691406 202.046875 C 44.980469 202.046875 46.03125 201 46.03125 199.707031 C 46.03125 198.414062 44.980469 197.367188 43.691406 197.367188 C 42.398438 197.367188 41.351562 198.414062 41.351562 199.707031 C 41.351562 201 42.398438 202.046875 43.691406 202.046875 Z M 87.257812 124.808594 C 87.277344 124.820312 87.296875 124.835938 87.316406 124.847656 Z M 88.992188 125.589844 C 89.019531 125.597656 89.046875 125.601562 89.074219 125.609375 Z M 89.234375 125.644531 C 89.253906 125.648438 89.269531 125.652344 89.289062 125.65625 C 89.269531 125.652344 89.253906 125.648438 89.234375 125.644531 Z M 90.527344 125.78125 L 80.523438 143.273438 L 49.273438 197.40625 L 49.269531 197.398438 C 49.542969 198.097656 49.695312 198.855469 49.695312 199.648438 C 49.695312 203.039062 46.941406 205.792969 43.550781 205.792969 C 41.285156 205.792969 39.3125 204.566406 38.246094 202.746094 L 38.1875 202.746094 C 37.660156 201.835938 37.359375 200.777344 37.359375 199.648438 C 37.359375 198.347656 37.761719 197.140625 38.445312 196.144531 L 38.5 196.144531 C 39.613281 194.546875 41.457031 193.503906 43.550781 193.503906 C 43.65625 193.503906 43.761719 193.503906 43.863281 193.511719 L 43.863281 193.507812 L 84.917969 122.257812 L 84.9375 122.296875 C 84.550781 121.492188 84.335938 120.589844 84.335938 119.636719 C 84.335938 118.335938 84.738281 117.132812 85.421875 116.136719 L 85.480469 116.136719 C 86.589844 114.539062 88.4375 113.492188 90.527344 113.492188 C 93.921875 113.492188 96.671875 116.242188 96.671875 119.636719 C 96.671875 123.03125 93.921875 125.78125 90.527344 125.78125 Z M 49.257812 197.375 C 49.246094 197.339844 49.230469 197.304688 49.21875 197.273438 C 49.230469 197.304688 49.246094 197.339844 49.257812 197.375 Z M 49.203125 197.238281 C 49.1875 197.203125 49.171875 197.171875 49.160156 197.136719 C 49.171875 197.171875 49.1875 197.203125 49.203125 197.238281 Z M 49.148438 197.113281 C 49.128906 197.070312 49.109375 197.03125 49.089844 196.992188 C 49.109375 197.03125 49.128906 197.070312 49.148438 197.113281 Z M 49.078125 196.960938 C 49.0625 196.929688 49.046875 196.898438 49.03125 196.867188 C 49.046875 196.898438 49.0625 196.929688 49.078125 196.960938 Z M 49.011719 196.832031 C 48.996094 196.796875 48.976562 196.765625 48.957031 196.730469 C 48.976562 196.765625 48.996094 196.796875 49.011719 196.832031 Z M 48.949219 196.714844 C 48.929688 196.675781 48.90625 196.636719 48.886719 196.597656 C 48.90625 196.636719 48.929688 196.675781 48.949219 196.714844 Z M 48.867188 196.566406 C 48.851562 196.539062 48.832031 196.507812 48.816406 196.480469 C 48.832031 196.507812 48.851562 196.539062 48.867188 196.566406 Z M 48.796875 196.449219 C 48.773438 196.410156 48.75 196.375 48.726562 196.339844 C 48.75 196.375 48.773438 196.410156 48.796875 196.449219 Z M 48.726562 196.335938 C 48.703125 196.296875 48.675781 196.261719 48.652344 196.226562 C 48.675781 196.261719 48.699219 196.296875 48.726562 196.335938 Z M 48.628906 196.191406 C 48.613281 196.164062 48.59375 196.136719 48.574219 196.109375 C 48.59375 196.136719 48.613281 196.164062 48.628906 196.191406 Z M 48.550781 196.078125 C 48.527344 196.042969 48.5 196.007812 48.476562 195.972656 C 48.5 196.007812 48.527344 196.042969 48.550781 196.078125 Z M 48.464844 195.960938 C 48.441406 195.929688 48.417969 195.898438 48.394531 195.867188 C 48.417969 195.898438 48.441406 195.929688 48.464844 195.960938 Z M 48.371094 195.835938 C 48.347656 195.808594 48.328125 195.78125 48.304688 195.757812 C 48.328125 195.78125 48.347656 195.808594 48.371094 195.835938 Z M 48.285156 195.730469 C 48.257812 195.699219 48.226562 195.664062 48.199219 195.628906 C 48.226562 195.664062 48.257812 195.699219 48.285156 195.730469 Z M 48.183594 195.613281 C 48.160156 195.585938 48.136719 195.558594 48.109375 195.53125 C 48.136719 195.558594 48.160156 195.585938 48.183594 195.613281 Z M 48.082031 195.5 C 48.058594 195.472656 48.035156 195.449219 48.011719 195.421875 C 48.035156 195.449219 48.058594 195.472656 48.082031 195.5 Z M 47.992188 195.402344 C 47.960938 195.371094 47.929688 195.339844 47.902344 195.308594 C 47.933594 195.339844 47.960938 195.371094 47.992188 195.402344 Z M 47.875 195.285156 C 47.851562 195.261719 47.828125 195.238281 47.804688 195.214844 C 47.828125 195.238281 47.851562 195.261719 47.875 195.285156 Z M 47.773438 195.1875 C 47.746094 195.160156 47.71875 195.132812 47.6875 195.105469 C 47.71875 195.132812 47.746094 195.160156 47.773438 195.1875 Z M 47.679688 195.097656 C 47.644531 195.066406 47.613281 195.039062 47.578125 195.007812 C 47.613281 195.039062 47.644531 195.066406 47.679688 195.097656 Z M 47.550781 194.984375 C 47.527344 194.964844 47.5 194.941406 47.476562 194.921875 C 47.5 194.941406 47.527344 194.964844 47.550781 194.984375 Z M 47.339844 194.8125 C 47.308594 194.785156 47.273438 194.757812 47.238281 194.734375 C 47.273438 194.757812 47.308594 194.785156 47.339844 194.8125 Z M 47.207031 194.710938 C 47.179688 194.6875 47.152344 194.667969 47.125 194.648438 C 47.152344 194.667969 47.179688 194.6875 47.207031 194.710938 Z M 47.097656 194.628906 C 47.058594 194.605469 47.023438 194.578125 46.988281 194.554688 C 47.023438 194.578125 47.058594 194.605469 47.097656 194.628906 Z M 46.96875 194.542969 C 46.9375 194.523438 46.90625 194.5 46.875 194.480469 C 46.90625 194.5 46.9375 194.523438 46.96875 194.542969 Z M 46.839844 194.457031 C 46.8125 194.441406 46.78125 194.421875 46.753906 194.402344 C 46.78125 194.421875 46.8125 194.441406 46.839844 194.457031 Z M 46.726562 194.386719 C 46.691406 194.367188 46.652344 194.34375 46.613281 194.320312 C 46.652344 194.34375 46.691406 194.367188 46.726562 194.386719 Z M 46.585938 194.304688 C 46.554688 194.289062 46.527344 194.269531 46.496094 194.253906 C 46.527344 194.269531 46.554688 194.289062 46.585938 194.304688 Z M 46.460938 194.234375 C 46.429688 194.21875 46.394531 194.199219 46.363281 194.183594 C 46.394531 194.199219 46.429688 194.21875 46.460938 194.234375 Z M 46.339844 194.171875 C 46.300781 194.152344 46.261719 194.132812 46.222656 194.113281 C 46.261719 194.132812 46.300781 194.152344 46.339844 194.171875 Z M 46.191406 194.097656 C 46.160156 194.082031 46.128906 194.070312 46.097656 194.054688 C 46.128906 194.070312 46.160156 194.082031 46.191406 194.097656 Z M 46.0625 194.039062 C 46.023438 194.023438 45.988281 194.007812 45.953125 193.992188 C 45.988281 194.007812 46.027344 194.023438 46.0625 194.039062 Z M 45.9375 193.984375 C 45.898438 193.96875 45.855469 193.949219 45.8125 193.933594 C 45.855469 193.949219 45.898438 193.96875 45.9375 193.984375 Z M 45.78125 193.921875 C 45.746094 193.90625 45.714844 193.894531 45.683594 193.882812 C 45.714844 193.894531 45.746094 193.90625 45.78125 193.921875 Z M 45.648438 193.871094 C 45.605469 193.855469 45.5625 193.839844 45.519531 193.824219 C 45.5625 193.839844 45.605469 193.855469 45.648438 193.871094 Z M 45.511719 193.824219 C 45.472656 193.808594 45.433594 193.796875 45.394531 193.785156 C 45.433594 193.796875 45.472656 193.808594 45.511719 193.824219 Z M 45.351562 193.773438 C 45.320312 193.761719 45.289062 193.753906 45.253906 193.742188 C 45.289062 193.753906 45.320312 193.761719 45.351562 193.773438 Z M 45.21875 193.730469 C 45.175781 193.71875 45.132812 193.707031 45.089844 193.695312 C 45.132812 193.707031 45.175781 193.71875 45.21875 193.730469 Z M 45.066406 193.691406 C 45.03125 193.683594 44.992188 193.671875 44.953125 193.664062 C 44.992188 193.671875 45.03125 193.683594 45.066406 193.691406 Z M 44.917969 193.65625 C 44.878906 193.648438 44.84375 193.640625 44.808594 193.632812 C 44.84375 193.640625 44.878906 193.648438 44.917969 193.65625 Z M 44.78125 193.625 C 44.734375 193.617188 44.6875 193.609375 44.644531 193.601562 C 44.6875 193.609375 44.734375 193.617188 44.78125 193.625 Z M 44.617188 193.59375 C 44.578125 193.589844 44.542969 193.582031 44.507812 193.578125 C 44.542969 193.582031 44.578125 193.589844 44.617188 193.59375 Z M 44.464844 193.570312 C 44.425781 193.566406 44.386719 193.558594 44.347656 193.554688 C 44.386719 193.558594 44.425781 193.566406 44.464844 193.570312 Z M 44.328125 193.550781 C 44.28125 193.546875 44.234375 193.539062 44.1875 193.535156 C 44.234375 193.539062 44.28125 193.546875 44.328125 193.550781 Z M 44.152344 193.53125 C 44.117188 193.527344 44.082031 193.523438 44.046875 193.523438 C 44.082031 193.527344 44.117188 193.527344 44.152344 193.53125 Z M 44.003906 193.519531 C 43.960938 193.515625 43.914062 193.511719 43.867188 193.511719 C 43.914062 193.511719 43.960938 193.515625 44.003906 193.519531 Z M 84.984375 122.394531 C 84.996094 122.421875 85.007812 122.445312 85.023438 122.472656 C 85.007812 122.445312 84.996094 122.421875 84.984375 122.394531 Z M 85.144531 122.699219 C 85.152344 122.710938 85.160156 122.722656 85.167969 122.734375 Z M 90.527344 121.976562 C 91.820312 121.976562 92.867188 120.929688 92.867188 119.636719 C 92.867188 118.347656 91.820312 117.300781 90.527344 117.300781 C 89.238281 117.300781 88.1875 118.347656 88.1875 119.636719 C 88.1875 120.929688 89.238281 121.976562 90.527344 121.976562 Z M 90.527344 125.78125 C 90.492188 125.78125 90.457031 125.78125 90.421875 125.78125 L 90.417969 125.78125 C 90.386719 125.78125 90.351562 125.78125 90.316406 125.777344 L 90.3125 125.777344 C 90.28125 125.777344 90.246094 125.777344 90.210938 125.773438 C 90.175781 125.773438 90.140625 125.769531 90.105469 125.769531 C 90.070312 125.765625 90.035156 125.761719 90.003906 125.761719 L 90 125.761719 C 89.96875 125.757812 89.933594 125.753906 89.898438 125.75 C 89.863281 125.746094 89.828125 125.742188 89.796875 125.738281 L 89.792969 125.738281 C 89.761719 125.734375 89.726562 125.730469 89.695312 125.726562 L 89.691406 125.726562 C 89.660156 125.722656 89.625 125.71875 89.589844 125.710938 C 89.554688 125.707031 89.523438 125.699219 89.488281 125.695312 C 89.457031 125.691406 89.421875 125.683594 89.390625 125.675781 L 89.386719 125.675781 C 89.355469 125.671875 89.320312 125.664062 89.289062 125.65625 Z M 48.578125 194.9375 C 48.613281 194.964844 48.648438 194.992188 48.683594 195.023438 L 48.710938 195.046875 Z M 48.578125 194.9375"/></g><g fill="#FCBA03"><g><g><path d="M 0.53125 -21.890625 L 0.53125 -26.8125 L 15.046875 -26.8125 L 15.046875 -21.890625 L 10.6875 -21.890625 L 10.6875 0 L 4.890625 0 L 4.890625 -21.890625 Z M 0.53125 -21.890625" transform="translate(171.684 175.676)"/></g></g></g><g fill="#FCBA03"><g><g><path d="M 7.875 -4.8125 L 14.296875 -4.8125 L 14.296875 0 L 2.078125 0 L 2.078125 -26.8125 L 14.296875 -26.8125 L 14.296875 -22.09375 L 7.875 -22.09375 L 7.875 -15.796875 L 13.890625 -15.796875 L 13.890625 -11.234375 L 7.875 -11.234375 Z M 7.875 -4.8125" transform="translate(186.688 175.676)"/></g></g></g><g fill="#FCBA03"><g><g><path d="M 12.0625 -4.390625 L 12.0625 -8.546875 L 17.578125 -8.546875 L 17.578125 -5.0625 C 17.578125 -1.40625 15.863281 0.421875 12.4375 0.421875 L 7.21875 0.421875 C 3.789062 0.421875 2.078125 -1.40625 2.078125 -5.0625 L 2.078125 -21.765625 C 2.078125 -25.410156 3.789062 -27.234375 7.21875 -27.234375 L 12.4375 -27.234375 C 15.863281 -27.234375 17.578125 -25.410156 17.578125 -21.765625 L 17.578125 -19.234375 L 12.0625 -19.234375 L 12.0625 -22.46875 C 12.0625 -22.6875 11.984375 -22.878906 11.828125 -23.046875 C 11.679688 -23.210938 11.5 -23.296875 11.28125 -23.296875 L 8.65625 -23.296875 C 8.4375 -23.296875 8.25 -23.210938 8.09375 -23.046875 C 7.945312 -22.878906 7.875 -22.6875 7.875 -22.46875 L 7.875 -4.390625 C 7.875 -4.171875 7.945312 -3.976562 8.09375 -3.8125 C 8.25 -3.644531 8.4375 -3.5625 8.65625 -3.5625 L 11.28125 -3.5625 C 11.5 -3.5625 11.679688 -3.644531 11.828125 -3.8125 C 11.984375 -3.976562 12.0625 -4.171875 12.0625 -4.390625 Z M 12.0625 -4.390625" transform="translate(201.651 175.676)"/></g></g></g><g fill="#FCBA03"><g><g><path d="M 7.875 -10.53125 L 7.875 0 L 2.078125 0 L 2.078125 -26.8125 L 7.875 -26.8125 L 7.875 -15.59375 L 12.484375 -15.59375 L 12.484375 -26.8125 L 18.28125 -26.8125 L 18.28125 0 L 12.484375 0 L 12.484375 -10.53125 Z M 7.875 -10.53125" transform="translate(220.013 175.676)"/></g></g></g><g fill="#FCBA03"><g><g><path d="M 11.984375 -26.8125 L 17.125 -26.8125 L 20.234375 -6.625 L 22.546875 -26.8125 L 28.1875 -26.8125 L 23.828125 0 L 17.25 0 L 14.546875 -16.453125 L 11.859375 0 L 5.265625 0 L 0.90625 -26.8125 L 6.546875 -26.8125 L 8.875 -6.625 Z M 11.984375 -26.8125" transform="translate(247.494 175.676)"/></g></g></g><g fill="#FCBA03"><g><g><path d="M 17.859375 -21.765625 L 17.859375 -5.0625 C 17.859375 -1.40625 16.144531 0.421875 12.71875 0.421875 L 7.21875 0.421875 C 3.789062 0.421875 2.078125 -1.40625 2.078125 -5.0625 L 2.078125 -21.765625 C 2.078125 -25.410156 3.789062 -27.234375 7.21875 -27.234375 L 12.71875 -27.234375 C 16.144531 -27.234375 17.859375 -25.410156 17.859375 -21.765625 Z M 12.0625 -4.390625 L 12.0625 -22.46875 C 12.0625 -22.6875 11.984375 -22.878906 11.828125 -23.046875 C 11.679688 -23.210938 11.5 -23.296875 11.28125 -23.296875 L 8.65625 -23.296875 C 8.4375 -23.296875 8.25 -23.210938 8.09375 -23.046875 C 7.945312 -22.878906 7.875 -22.6875 7.875 -22.46875 L 7.875 -4.390625 C 7.875 -4.171875 7.945312 -3.976562 8.09375 -3.8125 C 8.25 -3.644531 8.4375 -3.5625 8.65625 -3.5625 L 11.28125 -3.5625 C 11.5 -3.5625 11.679688 -3.644531 11.828125 -3.8125 C 11.984375 -3.976562 12.0625 -4.171875 12.0625 -4.390625 Z M 12.0625 -4.390625" transform="translate(276.177 175.676)"/></g></g></g><g fill="#FCBA03"><g><g><path d="M 7.875 -10.984375 L 7.875 0 L 2.078125 0 L 2.078125 -26.8125 L 12.390625 -26.8125 C 15.816406 -26.8125 17.53125 -24.988281 17.53125 -21.34375 L 17.53125 -18.234375 C 17.53125 -16.023438 16.742188 -14.617188 15.171875 -14.015625 C 16.554688 -13.515625 17.25 -12.378906 17.25 -10.609375 L 17.25 0 L 11.4375 0 L 11.4375 -10.15625 C 11.4375 -10.707031 11.175781 -10.984375 10.65625 -10.984375 Z M 7.875 -22.875 L 7.875 -15.046875 L 10.9375 -15.046875 C 11.164062 -15.046875 11.351562 -15.128906 11.5 -15.296875 C 11.65625 -15.460938 11.734375 -15.65625 11.734375 -15.875 L 11.734375 -22.046875 C 11.734375 -22.273438 11.65625 -22.46875 11.5 -22.625 C 11.351562 -22.789062 11.164062 -22.875 10.9375 -22.875 Z M 7.875 -22.875" transform="translate(295.616 175.676)"/></g></g></g><g fill="#FCBA03"><g><g><path d="M 7.875 -4.890625 L 14.21875 -4.890625 L 14.21875 0 L 2.078125 0 L 2.078125 -26.8125 L 7.875 -26.8125 Z M 7.875 -4.890625" transform="translate(314.185 175.676)"/></g></g></g><g fill="#FCBA03"><g><g><path d="M 12.71875 -26.8125 C 16.144531 -26.8125 17.859375 -24.988281 17.859375 -21.34375 L 17.859375 -5.46875 C 17.859375 -1.820312 16.144531 0 12.71875 0 L 2.078125 0 L 2.078125 -26.8125 Z M 12.0625 -4.8125 L 12.0625 -22.046875 C 12.0625 -22.273438 11.984375 -22.46875 11.828125 -22.625 C 11.679688 -22.789062 11.5 -22.875 11.28125 -22.875 L 7.875 -22.875 L 7.875 -3.984375 L 11.28125 -3.984375 C 11.5 -3.984375 11.679688 -4.066406 11.828125 -4.234375 C 11.984375 -4.398438 12.0625 -4.59375 12.0625 -4.8125 Z M 12.0625 -4.8125" transform="translate(328.443 175.676)"/></g></g></g><g fill="#D9D9D9"><g><g><path d="M 3.984375 0.140625 C 2.796875 0.140625 1.910156 -0.195312 1.328125 -0.875 C 0.753906 -1.550781 0.46875 -2.550781 0.46875 -3.875 L 0.46875 -14.453125 L 3.28125 -14.453125 L 3.28125 -3.984375 C 3.28125 -3.523438 3.320312 -3.164062 3.40625 -2.90625 C 3.5 -2.65625 3.691406 -2.53125 3.984375 -2.53125 C 4.273438 -2.53125 4.460938 -2.65625 4.546875 -2.90625 C 4.640625 -3.15625 4.6875 -3.515625 4.6875 -3.984375 L 4.6875 -14.453125 L 7.5 -14.453125 L 7.5 -3.875 C 7.5 -2.550781 7.207031 -1.550781 6.625 -0.875 C 6.050781 -0.195312 5.171875 0.140625 3.984375 0.140625 Z M 3.984375 0.140625" transform="translate(218.335 198.686)"/></g></g></g><g fill="#D9D9D9"><g><g><path d="M 0.640625 -14.453125 L 4.453125 -14.453125 C 5.609375 -14.453125 6.429688 -14.078125 6.921875 -13.328125 C 7.421875 -12.585938 7.671875 -11.5 7.671875 -10.0625 C 7.671875 -8.625 7.453125 -7.539062 7.015625 -6.8125 C 6.578125 -6.082031 5.789062 -5.71875 4.65625 -5.71875 L 3.484375 -5.71875 L 3.484375 0 L 0.640625 0 Z M 3.65625 -8.328125 C 4 -8.328125 4.25 -8.390625 4.40625 -8.515625 C 4.570312 -8.648438 4.679688 -8.835938 4.734375 -9.078125 C 4.785156 -9.316406 4.8125 -9.660156 4.8125 -10.109375 C 4.8125 -10.710938 4.742188 -11.148438 4.609375 -11.421875 C 4.472656 -11.691406 4.203125 -11.828125 3.796875 -11.828125 L 3.484375 -11.828125 L 3.484375 -8.328125 Z M 3.65625 -8.328125" transform="translate(231.287 198.686)"/></g></g></g><g fill="#D9D9D9"><g><g><path d="M 0.640625 -14.453125 L 4.625 -14.453125 C 5.65625 -14.453125 6.425781 -14.164062 6.9375 -13.59375 C 7.457031 -13.019531 7.722656 -12.175781 7.734375 -11.0625 L 7.78125 -4.296875 C 7.789062 -2.867188 7.539062 -1.796875 7.03125 -1.078125 C 6.53125 -0.359375 5.695312 0 4.53125 0 L 0.640625 0 Z M 4.0625 -2.5625 C 4.582031 -2.5625 4.84375 -2.816406 4.84375 -3.328125 L 4.84375 -10.78125 C 4.84375 -11.113281 4.816406 -11.359375 4.765625 -11.515625 C 4.710938 -11.679688 4.617188 -11.789062 4.484375 -11.84375 C 4.359375 -11.90625 4.15625 -11.9375 3.875 -11.9375 L 3.546875 -11.9375 L 3.546875 -2.5625 Z M 4.0625 -2.5625" transform="translate(244.205 198.686)"/></g></g></g><g fill="#D9D9D9"><g><g><path d="M 0.25 0 L 1.65625 -14.453125 L 6.546875 -14.453125 L 7.921875 0 L 5.1875 0 L 4.984375 -2.34375 L 3.234375 -2.34375 L 3.0625 0 Z M 3.453125 -4.640625 L 4.765625 -4.640625 L 4.125 -12 L 3.984375 -12 Z M 3.453125 -4.640625" transform="translate(257.476 198.686)"/></g></g></g><g fill="#D9D9D9"><g><g><path d="M 1.890625 0 L 1.890625 -11.671875 L 0.171875 -11.671875 L 0.171875 -14.453125 L 6.5 -14.453125 L 6.5 -11.671875 L 4.78125 -11.671875 L 4.78125 0 Z M 1.890625 0" transform="translate(270.612 198.686)"/></g></g></g><g fill="#D9D9D9"><g><g><path d="M 0.640625 0 L 0.640625 -14.453125 L 6.421875 -14.453125 L 6.421875 -11.65625 L 3.578125 -11.65625 L 3.578125 -8.84375 L 6.3125 -8.84375 L 6.3125 -6.125 L 3.578125 -6.125 L 3.578125 -2.8125 L 6.609375 -2.8125 L 6.609375 0 Z M 0.640625 0" transform="translate(282.252 198.686)"/></g></g></g><g fill="#D9D9D9"><g><g><path d="M 4.078125 0.140625 C 2.765625 0.140625 1.816406 -0.179688 1.234375 -0.828125 C 0.648438 -1.484375 0.359375 -2.535156 0.359375 -3.984375 L 0.359375 -5.40625 L 3.203125 -5.40625 L 3.203125 -3.59375 C 3.203125 -2.882812 3.429688 -2.53125 3.890625 -2.53125 C 4.148438 -2.53125 4.328125 -2.601562 4.421875 -2.75 C 4.523438 -2.90625 4.578125 -3.160156 4.578125 -3.515625 C 4.578125 -3.984375 4.519531 -4.375 4.40625 -4.6875 C 4.289062 -5 4.144531 -5.253906 3.96875 -5.453125 C 3.800781 -5.660156 3.492188 -5.984375 3.046875 -6.421875 L 1.796875 -7.671875 C 0.835938 -8.617188 0.359375 -9.660156 0.359375 -10.796875 C 0.359375 -12.035156 0.640625 -12.976562 1.203125 -13.625 C 1.765625 -14.269531 2.59375 -14.59375 3.6875 -14.59375 C 4.988281 -14.59375 5.925781 -14.242188 6.5 -13.546875 C 7.070312 -12.859375 7.359375 -11.78125 7.359375 -10.3125 L 4.40625 -10.3125 L 4.390625 -11.3125 C 4.390625 -11.5 4.335938 -11.648438 4.234375 -11.765625 C 4.128906 -11.878906 3.976562 -11.9375 3.78125 -11.9375 C 3.5625 -11.9375 3.394531 -11.875 3.28125 -11.75 C 3.164062 -11.625 3.109375 -11.453125 3.109375 -11.234375 C 3.109375 -10.765625 3.378906 -10.28125 3.921875 -9.78125 L 5.609375 -8.15625 C 5.992188 -7.78125 6.316406 -7.421875 6.578125 -7.078125 C 6.835938 -6.734375 7.046875 -6.328125 7.203125 -5.859375 C 7.359375 -5.398438 7.4375 -4.847656 7.4375 -4.203125 C 7.4375 -2.773438 7.175781 -1.691406 6.65625 -0.953125 C 6.132812 -0.222656 5.273438 0.140625 4.078125 0.140625 Z M 4.078125 0.140625" transform="translate(294.16 198.686)"/></g></g></g></svg>